<?xml version="1.0" encoding="UTF-8" standalone="no"?>
<svg
   version="1.1"
   x="0px"
   y="0px"
   viewBox="0 0 320 340"
   xml:space="preserve"
   id="svg10"
   sodipodi:docname="clapperboard-logo.svg"
   inkscape:version="1.3.2 (091e20e, 2023-11-25, custom)"
   width="320"
   height="340"
   inkscape:export-filename="clapperboard-logo - Copy.png"
   inkscape:export-xdpi="96"
   inkscape:export-ydpi="96"
   xmlns:inkscape="http://www.inkscape.org/namespaces/inkscape"
   xmlns:sodipodi="http://sodipodi.sourceforge.net/DTD/sodipodi-0.dtd"
   xmlns="http://www.w3.org/2000/svg"
   xmlns:svg="http://www.w3.org/2000/svg"><defs
     id="defs10" /><sodipodi:namedview
     id="namedview10"
     pagecolor="#ffffff"
     bordercolor="#000000"
     borderopacity="0.25"
     inkscape:showpageshadow="2"
     inkscape:pageopacity="0.0"
     inkscape:pagecheckerboard="0"
     inkscape:deskcolor="#d1d1d1"
     inkscape:zoom="0.8039804"
     inkscape:cx="114.43065"
     inkscape:cy="266.79755"
     inkscape:window-width="1920"
     inkscape:window-height="991"
     inkscape:window-x="-9"
     inkscape:window-y="1341"
     inkscape:window-maximized="1"
     inkscape:current-layer="svg10" /><path
     d="m 96.92554,105.87791 -32.33477,11.1027 C 57.26523,105.35495 44.46521,97.63134 29.9717,97.63134 c -2.20554,0 -4.33232,0.1609 -6.45908,0.52294 0,-0.6034 -0.0788,-1.24703 -0.2757,-1.89068 L 21.7403,91.59726 51.63323,81.33933 Z"
     id="path1"
     style="stroke-width:3.98037" /><polygon
     points="45.66,30.13 37.72,32.8 26.2,26.71 34.52,23.92 "
     id="polygon1"
     transform="matrix(3.9384615,0,0,4.0227167,-36.94277,-31.135827)" /><polygon
     points="57.7,26.08 49.31,28.9 38.17,22.69 46.57,19.87 "
     id="polygon2"
     transform="matrix(3.9384615,0,0,4.0227167,-36.94277,-31.135827)" /><path
     d="m 237.72555,57.48461 -33.0437,11.34406 -43.83509,-24.94084 33.04368,-11.34405 c 0.0395,0.0402 0.0787,0.0402 0.11819,0.0805 z"
     id="path2"
     style="stroke-width:3.98037" /><path
     d="M 285.18401,41.15239 252.1403,52.53668 208.34461,27.59584 241.4277,16.25178 c 0.0787,0.0402 0.19692,0.12068 0.27568,0.16091 z"
     id="path3"
     style="stroke-width:3.98037" /><polygon
     points="85.65,16.67 85.44,16.74 74.32,10.55 82.68,7.74 "
     id="polygon3"
     transform="matrix(3.9384615,0,0,4.0227167,-36.94277,-31.135827)" /><rect
     x="35.524902"
     y="194.25699"
     width="284.43573"
     height="145.74301"
     id="rect3"
     style="stroke-width:3.98037" /><polygon
     points="90.63,43.9 90.63,53.17 81.97,53.17 90.4,43.9 "
     id="polygon4"
     transform="matrix(3.9384615,0,0,4.0227167,-36.94277,-31.135827)" /><polygon
     points="86.54,43.9 78.12,53.17 69.23,53.17 77.65,43.9 "
     id="polygon5"
     transform="matrix(3.9384615,0,0,4.0227167,-36.94277,-31.135827)" /><polygon
     points="73.79,43.9 65.37,53.17 56.48,53.17 64.9,43.9 "
     id="polygon6"
     transform="matrix(3.9384615,0,0,4.0227167,-36.94277,-31.135827)" /><polygon
     points="61.05,43.9 52.62,53.17 43.73,53.17 52.16,43.9 "
     id="polygon7"
     transform="matrix(3.9384615,0,0,4.0227167,-36.94277,-31.135827)" /><polygon
     points="48.3,43.9 39.87,53.17 30.98,53.17 39.41,43.9 "
     id="polygon8"
     transform="matrix(3.9384615,0,0,4.0227167,-36.94277,-31.135827)" /><path
     d="M 103.06954,145.46143 69.8683,182.75202 H 35.52492 v -1.36772 c 18.23507,-2.53432 32.68922,-17.33792 35.17045,-35.92287 z"
     id="path8"
     style="stroke-width:3.98037" /><path
     d="m 59.86461,139.70895 c 0,16.85518 -13.43017,30.57265 -29.93231,30.57265 C 13.43016,170.2816 0,156.56413 0,139.70895 0,122.85377 13.43016,109.1363 29.9323,109.1363 c 16.50214,0 29.93232,13.71747 29.93231,30.57265 z"
     id="path9"
     inkscape:export-filename="path9.svg"
     inkscape:export-xdpi="96"
     inkscape:export-ydpi="96"
     style="stroke-width:3.98037" /></svg>
